# xmcd
#
# Track frame offsets:
# 150
# 17474
# 32698
# 46723
# 55497
# 72146
# 84745
# 106419
# 118568
# 130492
# 143391
# 154789
# 169263
# 185611
#
# Disc length: 2636 seconds
#
#
# Revision: 0
# Processed by: cddbd v1.5.2PL0 Copyright (c) Steve Scherf et al.
# Submitted via: FreeRIP 2.951 
#
DISCID=b60a4a0e
DTITLE=CV De Geiten - Tusse de Heas en de Koter
DYEAR=1900
DGENRE=National Folk
TTITLE0=Loat Goan
TTITLE1=Ozze Dorustrui
TTITLE2=Hulde An Os Durpke Tiendere
TTITLE3=Os Haantje
TTITLE4=Os Tiendere
TTITLE5=As Ik Os Topke Mar Zie
TTITLE6=Vastenaovundrock
TTITLE7=Tussen de Heas en de Koter
TTITLE8=De Joekskapel
TTITLE9=Tienders Natuur
TTITLE10=Liempkes
TTITLE11=Tied Um Te leave
TTITLE12=Vurjoarskriebels
TTITLE13=Fiest Vur Iederien
EXTD=
EXTT0=
EXTT1=
EXTT2=
EXTT3=
EXTT4=
EXTT5=
EXTT6=
EXTT7=
EXTT8=
EXTT9=
EXTT10=
EXTT11=
EXTT12=
EXTT13=
PLAYORDER=
